HIERARCHY
ROOT ui
{
	 OFFSET 0 0 0
	 CHANNELS 3 XPosition YPosition Z Position
	 EndSite
	 {
	 OFFSET 0 -1 0
	 }
}
ROOT li
{
	 OFFSET 0 0 0
	 CHANNELS 3 XPosition YPosition Z Position
	 EndSite
	 {
	 OFFSET 0 -1 0
	 }
}
ROOT ul
{
	 OFFSET 0 0 0
	 CHANNELS 3 XPosition YPosition Z Position
	 EndSite
	 {
	 OFFSET 0 -1 0
	 }
}
ROOT ll
{
	 OFFSET 0 0 0
	 CHANNELS 3 XPosition YPosition Z Position
	 EndSite
	 {
	 OFFSET 0 -1 0
	 }
}
ROOT tt
{
	 OFFSET 0 0 0
	 CHANNELS 3 XPosition YPosition Z Position
	 EndSite
	 {
	 OFFSET 0 -1 0
	 }
}
ROOT tb
{
	 OFFSET 0 0 0
	 CHANNELS 3 XPosition YPosition Z Position
	 EndSite
	 {
	 OFFSET 0 -1 0
	 }
}
ROOT td
{
	 OFFSET 0 0 0
	 CHANNELS 3 XPosition YPosition Z Position
	 EndSite
	 {
	 OFFSET 0 -1 0
	 }
}
ROOT v
{
	 OFFSET 0 0 0
	 CHANNELS 3 XPosition YPosition Z Position
	 EndSite
	 {
	 OFFSET 0 -1 0
	 }
}
ROOT bn
{
	 OFFSET 0 0 0
	 CHANNELS 3 XPosition YPosition Z Position
	 EndSite
	 {
	 OFFSET 0 -1 0
	 }
}
MOTION
Frames: 29
Frame Time: 0.002
-0.002243971109390259	6.02089986205101E-5	0		0.5247000122070312	-2.650219482421875	0		-0.7095288696289063	0.1847873077392578	0		-0.41704071044921875	-2.6259619140625	0		0.9898032836914062	-0.7310398559570312	0		3.038078125	-0.3319981689453125	0		4.52984423828125	-0.1605588836669922	0		5.8083017578125	0.39371917724609373	0		-0.28533401489257815	5.8760185546875	0		
-0.005493631839752197	-0.0026422948837280273	0		0.48681643676757813	-2.639363037109375	0		-0.7097452392578125	0.1849949035644531	0		-0.3821300659179688	-2.629263427734375	0		1.0085818481445312	-0.7350116577148438	0		3.07375439453125	-0.3410972900390625	0		4.52655908203125	-0.1659769287109375	0		5.808849609375	0.39129837036132814	0		-0.4192085876464844	5.857259765625	0		
-0.008746828079223633	-0.005349084854125976	0		0.5065053405761719	-2.657381591796875	0		-0.7099658203125	0.18519737243652343	0		-0.36521630859375	-2.632294677734375	0		0.9805287475585938	-0.7272789916992187	0		3.04666064453125	-0.3342464904785156	0		4.534330078125	-0.16755697631835936	0		5.81233251953125	0.40262298583984374	0		-0.4188096923828125	5.85646630859375	0		
0.023135631561279298	4.1299301385879514E-4	0		0.5266217041015625	-2.647406982421875	0		-0.7010632934570312	0.19325726318359376	0		-0.4270177001953125	-2.61615185546875	0		0.9893262939453125	-0.7301077270507812	0		3.065685546875	-0.3200919494628906	0		4.54821044921875	-0.16222979736328125	0		5.81878857421875	0.43286904907226564	0		-0.2577706298828125	5.89726953125	0		
-0.00305240797996521	0.001034085988998413	0		0.4897871398925781	-2.634590576171875	0		-0.6292897338867187	0.19137283325195312	0		-0.36696920776367187	-2.611840576171875	0		0.9736760864257813	-0.6965757446289063	0		3.0463095703125	-0.3333738708496094	0		4.54314990234375	-0.15362521362304687	0		5.82646484375	0.428458740234375	0		-0.2583632507324219	5.8964853515625	0		
0.0187296199798584	-0.0020696070194244384	0		0.522549072265625	-2.6508232421875	0		-0.70145068359375	0.19361985778808594	0		-0.38802508544921877	-2.6153310546875	0		0.9505682983398438	-0.6949489135742187	0		3.080216064453125	-0.32945513916015623	0		4.5547802734375	-0.16727996826171876	0		5.8334443359375	0.42406109619140625	0		-0.2882159423828125	5.8771220703125	0		
-0.00641408109664917	-0.0014900280237197876	0		0.5127108154296875	-2.6414326171875	0		-0.6296325073242187	0.19172166442871094	0		-0.3649135131835938	-2.60948681640625	0		0.96734765625	-0.702926513671875	0		3.03005224609375	-0.3313050537109375	0		4.55464453125	-0.1667705078125	0		5.8370009765625	0.44052877807617186	0		-0.28874932861328123	5.87731298828125	0		
0.012362062454223633	-0.008572756767272949	0		0.5065442810058594	-2.65611376953125	0		-0.6917575073242187	0.1927867889404297	0		-0.417798095703125	-2.604536865234375	0		0.9503936157226562	-0.6944188232421875	0		3.034159912109375	-0.31697186279296874	0		4.5576240234375	-0.1603223876953125	0		5.829259765625	0.47294216918945314	0		-0.4215603942871094	5.85743017578125	0		
4.7846099734306333E-4	0.00578338623046875	0		0.5117118225097657	-2.649973388671875	0		-0.6768176879882812	0.19570423889160157	0		-0.36377066040039063	-2.60817138671875	0		0.9533916015625	-0.6912205810546875	0		3.066867431640625	-0.3320765075683594	0		4.5624267578125	-0.1679207305908203	0		5.84829443359375	0.44727288818359373	0		-0.25847366333007815	5.89419775390625	0		
0.022356704711914064	0.0016304719448089599	0		0.5170066528320313	-2.6368486328125	0		-0.6809486694335938	0.19188706970214844	0		-0.3745350036621094	-2.598868408203125	0		0.9733140258789063	-0.6952843017578125	0		3.051974609375	-0.3214991455078125	0		4.5784765625	-0.16070001220703126	0		5.847724609375	0.479361572265625	0		-0.28916473388671876	5.876787109375	0		
-0.006717257022857666	-7.9550302028656E-4	0		0.522947021484375	-2.649750244140625	0		-0.6208552856445313	0.20112641906738282	0		-0.340469482421875	-2.603231689453125	0		0.948297119140625	-0.6967096557617187	0		3.029832763671875	-0.3298388671875	0		4.57436669921875	-0.16620663452148438	0		5.8477001953125	0.4802499084472656	0		-0.2895610656738281	5.8769208984375	0		
-0.009769780158996582	-0.0036155579090118408	0		0.5230968627929687	-2.64958203125	0		-0.6869422607421874	0.19717889404296876	0		-0.3722325134277344	-2.596654296875	0		0.9672553100585938	-0.70178955078125	0		3.038798828125	-0.33264938354492185	0		4.5792509765625	-0.17386598205566406	0		5.8555068359375	0.4756316223144531	0		-0.28992428588867186	5.87704052734375	0		
-0.00671613597869873	-5.384830236434936E-4	0		0.5331309204101562	-2.6585732421875	0		-0.6719015502929687	0.20004414367675782	0		-0.355115966796875	-2.599798828125	0		0.9453233642578125	-0.700296142578125	0		3.059711669921875	-0.3406528930664062	0		4.579271484375	-0.17347900390625	0		5.8561962890625	0.47121588134765624	0		-0.4225718994140625	5.85604443359375	0		
-0.0036447980403900146	0.002523279905319214	0		0.5104098205566406	-2.651109619140625	0		-0.6627703247070312	0.2079825439453125	0		-0.38379678344726564	-2.589298828125	0		0.9734739379882813	-0.694539794921875	0		3.04897509765625	-0.3252216186523437	0		4.5833955078125	-0.1671772003173828	0		5.86281884765625	0.50287548828125	0		-0.26225479125976564	5.89783056640625	0		
-0.0066412148475646976	-3.4395599365234374E-4	0		0.53552197265625	-2.65634912109375	0		-0.595813232421875	0.20208209228515625	0		-0.3486603698730469	-2.592728271484375	0		0.9505733642578125	-0.6930706176757813	0		3.0598232421875	-0.34012637329101564	0		4.5983349609375	-0.17505882263183595	0		5.85571875	0.5038136901855469	0		-0.28983071899414065	5.87629443359375	0		
-0.006576488018035889	-2.699809968471527E-4	0		0.49786456298828125	-2.645708984375	0		-0.5857738037109375	0.2009847412109375	0		-0.35830953979492186	-2.5815302734375	0		0.9675570678710937	-0.7011900024414063	0		3.05807568359375	-0.3278729248046875	0		4.598408203125	-0.17475621032714844	0		5.86723583984375	0.514431396484375	0		-0.2900577697753906	5.87635400390625	0		
0.012407757759094239	-0.007480049133300781	0		0.5489532470703125	-2.65434912109375	0		-0.58569775390625	0.20101654052734375	0		-0.3442059326171875	-2.588685791015625	0		0.9646324462890625	-0.7040438232421875	0		3.04614892578125	-0.3295030517578125	0		4.59361572265625	-0.16641558837890624	0		5.87512060546875	0.5112723083496094	0		-0.42451303100585935	5.85830029296875	0		
-0.006382628917694092	-1.6802799701690673E-4	0		0.5081633911132812	-2.654702880859375	0		-0.64746435546875	0.21091075134277343	0		-0.3388901062011719	-2.581727783203125	0		0.9678126831054688	-0.701002197265625	0		3.020189208984375	-0.3349632263183594	0		4.59861767578125	-0.1742484588623047	0		5.87885302734375	0.5272229614257813	0		-0.4236793518066406	5.8563125	0		
0.02279036521911621	0.002452723026275635	0		0.5394376831054688	-2.652090576171875	0		-0.6322980346679687	0.21370425415039063	0		-0.36448614501953125	-2.569345703125	0		0.9865625610351563	-0.7302000732421875	0		3.079329833984375	-0.335649169921875	0		4.601828125	-0.16908547973632812	0		5.88032373046875	0.5189668579101563	0		-0.2602221984863281	5.894025390625	0		
-0.0030479850769042968	0.002836540937423706	0		0.5117066040039062	-2.65066064453125	0		-0.6321463623046875	0.2136996765136719	0		-0.330282470703125	-2.572818359375	0		0.9712127075195313	-0.6969263305664063	0		3.049658203125	-0.32410311889648435	0		4.6119921875	-0.16904721069335937	0		5.8804365234375	0.5193548583984375	0		-0.2905195922851562	5.87645751953125	0		
0.019090858459472657	-4.6532401442527774E-4	0		0.5250025634765625	-2.648820068359375	0		-0.6370397338867188	0.20875621032714844	0		-0.36397036743164063	-2.56934619140625	0		0.9683627319335938	-0.7008458862304687	0		3.04861376953125	-0.34098196411132814	0		4.619095703125	-0.1749886016845703	0		5.88422216796875	0.53514453125	0		-0.2905272216796875	5.8764541015625	0		
-0.005703227996826172	-1.1878400295972824E-4	0		0.49728860473632813	-2.64841650390625	0		-0.564849609375	0.20772564697265625	0		-0.3297347717285156	-2.57283642578125	0		0.9655455932617187	-0.7037782592773437	0		3.042800048828125	-0.3428097839355469	0		4.6193046875	-0.17485324096679689	0		5.88852490234375	0.51454248046875	0		-0.2905008850097656	5.87644189453125	0		
-0.008526283264160156	-0.003090204954147339	0		0.5354512329101563	-2.65794580078125	0		-0.6315604858398437	0.2136317138671875	0		-0.3504986572265625	-2.5765654296875	0		0.9733639526367187	-0.7338737182617188	0		3.054943115234375	-0.3489057922363281	0		4.6293037109375	-0.1908765869140625	0		5.8930185546875	0.5250369873046875	0		-0.4237396850585938	5.85627978515625	0		
-0.0022147409915924073	0.002803165912628174	0		0.51181884765625	-2.652620361328125	0		-0.6232267456054688	0.22148126220703124	0		-0.323068359375	-2.566973876953125	0		0.9721268920898437	-0.6968470458984375	0		3.05236181640625	-0.33581024169921875	0		4.62871826171875	-0.17776913452148438	0		5.8968369140625	0.5407051391601563	0		-0.29036550903320313	5.876390625	0		
-0.0019807389974594116	0.0027731239795684816	0		0.5281954345703125	-2.646862060546875	0		-0.6179425659179687	0.2253670654296875	0		-0.35773052978515624	-2.5635244140625	0		0.995845703125	-0.7351851806640625	0		3.0643935546875	-0.3509360656738281	0		4.63384423828125	-0.18576222229003905	0		5.89700341796875	0.5408872680664063	0		-0.290265625	5.87635400390625	0		
-0.004785641193389893	-2.2202500700950622E-4	0		0.5363324584960938	-2.657998291015625	0		-0.5507865600585937	0.21938676452636718	0		-0.2885316467285156	-2.570527099609375	0		0.9665309448242188	-0.7037880249023437	0		3.0796220703125	-0.35211892700195313	0		4.6400009765625	-0.1917874755859375	0		5.8971708984375	0.5410323486328125	0		-0.29014910888671874	5.87631103515625	0		
-0.0075902361869812016	-0.0032239930629730223	0		0.5247147827148437	-2.65086669921875	0		-0.5505537109375	0.21933316040039064	0		-0.3242318420410156	-2.569076416015625	0		0.9637388916015625	-0.706772705078125	0		3.055908935546875	-0.348775146484375	0		4.64024072265625	-0.1917487335205078	0		5.8931591796875	0.5585812377929688	0		-0.42428155517578126	5.85812353515625	0		
-0.00735434103012085	-0.0032742009162902833	0		0.5368921508789063	-2.65807470703125	0		-0.6053990478515625	0.21403790283203125	0		-0.32192996215820313	-2.567159423828125	0		0.9639852905273437	-0.706808349609375	0		3.0520810546875	-0.3537235107421875	0		4.6404794921875	-0.1917292938232422	0		5.90601611328125	0.5322687377929688	0		-0.4221752624511719	5.8550400390625	0		
0.028001922607421875	0.005184496879577637	0		0.5142594604492188	-2.6508056640625	0		-0.6001118774414063	0.2179051513671875	0		-0.34067498779296873	-2.56795556640625	0		0.9672703247070312	-0.7038936767578124	0		3.107121337890625	-0.36850140380859375	0		4.639689453125	-0.1937128143310547	0		5.9127890625	0.5649520874023437	0		-0.28774935913085936	5.87312109375	0		
